# xmcd
#
# Track frame offsets: 
#        150
#        13609
#        25825
#        35892
#        49166
#        58496
#        70990
#        82855
#        94901
#        104529
#        118677
#        132343
#        147894
#        163223
#        179103
#        202097
#        219235
#        229786
#        245207
#        262597
#        281406
#        299129
#        312125
#
# Disc length: 4325 seconds
#
# Revision: 0
# Processed by: cddbd v1.5.1PL2 Copyright (c) Steve Scherf et al.
# Submitted via: ExactAudioCopy v0.95b3
#
DISCID=6910e317
DTITLE=Salvatore Adamo - Нежный садовник любви
DYEAR=2004
DGENRE=Chanson
TTITLE0=En blue-jeans et blouson d'cuir
TTITLE1=Ma chambrette
TTITLE2=Crier ton nom
TTITLE3=J'ai pas demande la vie
TTITLE4=J'etais tout autre
TTITLE5=Le train va
TTITLE6=Car je veux
TTITLE7=Comme toujours
TTITLE8=A vot' bon coeur
TTITLE9=Viens, ma brune
TTITLE10=Tenez-vouz bien
TTITLE11=Ensemble
TTITLE12=Le hasard
TTITLE13=Les gratte-ciel
TTITLE14=Le taureau et l'enfant
TTITLE15=A demain sur la lune
TTITLE16=Au pied d'un arbre mort
TTITLE17=Petit bonheur
TTITLE18=Le carosse d'or
TTITLE19=Et t'oublier
TTITLE20=Eddy Cochran,Buddy Holly and Bassens
TTITLE21=Tombe la neige (live)(bonus)
TTITLE22=Ma tete
EXTD=
EXTT0=
EXTT1=
EXTT2=
EXTT3=
EXTT4=
EXTT5=
EXTT6=
EXTT7=
EXTT8=
EXTT9=
EXTT10=
EXTT11=
EXTT12=
EXTT13=
EXTT14=
EXTT15=
EXTT16=
EXTT17=
EXTT18=
EXTT19=
EXTT20=
EXTT21=
EXTT22=
PLAYORDER=
